<svg width="28" height="28" viewBox="0 0 28 28" fill="none" xmlns="http://www.w3.org/2000/svg">
<path fill-rule="evenodd" clip-rule="evenodd" d="M28 18.7445V9.37616C25.456 10.3389 20.6923 11.5097 16.0754 12.0554C16.0818 12.005 16.0893 11.9536 16.0957 11.9032L16.0732 11.9075L16.2499 10.7989C16.2788 10.6091 16.3077 10.4194 16.3398 10.2296L16.4748 9.38581C16.903 6.68832 18.0883 2.77395 19.1269 0.000335693H9.14457C10.105 2.54666 11.5419 7.43774 12.0869 12.0608C7.46996 11.5151 2.58424 10.3389 0.0412628 9.37616L0.0401917 14.5707L0.0412628 18.7445C2.58424 17.7839 7.61343 16.4726 12.2315 15.928C11.6865 20.5521 10.3663 25.4432 9.4069 27.9895H18.764C17.8046 25.4432 16.508 20.5521 15.963 15.928C20.5799 16.4726 25.456 17.7839 28 18.7445Z" fill="white"/>
</svg>
